# xmcd
#
# Track frame offsets:
#  182
#  12582
#  26062
#  41362
#  56115
#  67687
#  82610
#  95932
#  109042
#  120460
#  131220
#  143790
#  153740
#  167472
#  178690
#  194007
#  205607
#  218187
#  231372
#  243417
#
# Disc length: 3420 seconds
#
# Revision: 0
# Processed by: cddbd v1.5.2PL0 Copyright (c) Steve Scherf et al.
# Submitted via: AltoMP3_Maker 3.0
#
DISCID=1a0d5a14
DTITLE=Various Artist - Country Greats Volume One
DYEAR=1900
DGENRE=
TTITLE0=Don't It Make My Brown Eyes Blue
TTITLE1=Ruby, Don't Take Your Love To Town
TTITLE2=Blanket On The Ground
TTITLE3=Me and  Bobby McGhee
TTITLE4=Walking After Midnight
TTITLE5=Midnight Love
TTITLE6=Where Do We Go From Here
TTITLE7=The Son Of Hickory Holler's Tramp
TTITLE8=Heaven's Just A Sin Away
TTITLE9=I can See An Angel Walking
TTITLE10=I Still Miss Someone (Live)
TTITLE11=Break My Mind
TTITLE12=Can't Stop The Mississippi
TTITLE13=King Of The Road
TTITLE14=Ready For The Times To Get Better
TTITLE15=Louisianna Man (Live)
TTITLE16=Crazy
TTITLE17=D.I.V.O.R.C.E
TTITLE18=Misty Blue
TTITLE19=I Fall To Pieces
EXTD=
EXTT0=
EXTT1=
EXTT2=
EXTT3=
EXTT4=
EXTT5=
EXTT6=
EXTT7=
EXTT8=
EXTT9=
EXTT10=
EXTT11=
EXTT12=
EXTT13=
EXTT14=
EXTT15=
EXTT16=
EXTT17=
EXTT18=
EXTT19=
PLAYORDER=
